<svg width="22" height="22" viewBox="0 0 22 22" fill="none" xmlns="http://www.w3.org/2000/svg">
<path fill-rule="evenodd" clip-rule="evenodd" d="M14.4871 14.5897C13.0333 16.0539 11.0993 16.8608 9.04278 16.8608C6.98631 16.8608 5.05371 16.0538 3.59999 14.5897C0.598017 11.5661 0.598017 6.64754 3.59999 3.62436C5.10084 2.11244 7.07108 1.35723 9.04278 1.35723C11.0145 1.35723 12.9862 2.11367 14.4871 3.62436C17.489 6.64767 17.489 11.5665 14.4871 14.5897ZM21.2326 20.4236L15.8934 15.046C18.9521 11.4696 18.8063 6.05532 15.4403 2.66411C11.9138 -0.888036 6.17293 -0.888036 2.64604 2.66411C-0.882012 6.21729 -0.882012 11.9982 2.64604 15.5505C4.35458 17.2713 6.62561 18.2196 9.04235 18.2196C11.2325 18.2196 13.2999 17.4343 14.9397 16.0068L20.2789 21.3844C20.4111 21.5176 20.5837 21.5828 20.755 21.5828C20.9276 21.5828 21.1002 21.5176 21.2324 21.3844C21.4953 21.1194 21.4953 20.6889 21.2324 20.424" fill="#545454"/>
</svg>
